<?xml version="1.0"?>
<svg enable-background="new 0 0 64 64" version="1.1" viewBox="0 0 64 64" xml:space="preserve" xmlns="http://www.w3.org/2000/svg" xmlns:xlink="http://www.w3.org/1999/xlink">
	<g id="Layer_1" />
	<g id="icon">
		<g>
			<g>
				<path d="M50.888,23.419H13.112c-2.815,0-5.106-2.168-5.106-4.832c0-2.665,2.291-4.833,5.106-4.833h37.776     c2.815,0,5.105,2.168,5.105,4.833C55.994,21.251,53.704,23.419,50.888,23.419z M13.112,15.754c-1.713,0-3.106,1.271-3.106,2.833     s1.394,2.832,3.106,2.832h37.776c1.712,0,3.105-1.271,3.105-2.832s-1.394-2.833-3.105-2.833H13.112z" />
			</g>
		</g>
		<g>
			<g>
				<path d="M45.96,36.832H13.112c-2.815,0-5.106-2.168-5.106-4.832s2.291-4.832,5.106-4.832H45.96c2.815,0,5.106,2.168,5.106,4.832     S48.776,36.832,45.96,36.832z M13.112,29.168c-1.713,0-3.106,1.271-3.106,2.832s1.394,2.832,3.106,2.832H45.96     c1.713,0,3.106-1.271,3.106-2.832s-1.394-2.832-3.106-2.832H13.112z" />
			</g>
		</g>
		<g>
			<g>
				<path d="M40.212,50.245H13.112c-2.815,0-5.106-2.168-5.106-4.832s2.291-4.832,5.106-4.832h27.101     c2.815,0,5.105,2.168,5.105,4.832S43.028,50.245,40.212,50.245z M13.112,42.581c-1.713,0-3.106,1.271-3.106,2.832     s1.394,2.832,3.106,2.832h27.101c1.712,0,3.105-1.271,3.105-2.832s-1.394-2.832-3.105-2.832H13.112z" />
			</g>
		</g>
	</g>
</svg>
